<svg version="1.2" xmlns="http://www.w3.org/2000/svg" viewBox="0 0 850 150" width="850" height="150">
	<title>AppName-DarkMode-svg</title>
	<defs>
		<linearGradient id="g1" x1="45.8" y1="60.7" x2="72.7" y2="60.7" gradientUnits="userSpaceOnUse">
			<stop offset="0" stop-color="#000000" stop-opacity="0"/>
			<stop offset=".361" stop-color="#000000" stop-opacity=".33"/>
			<stop offset=".667" stop-color="#000000" stop-opacity=".6"/>
			<stop offset=".951" stop-color="#000000" stop-opacity=".86"/>
			<stop offset="1" stop-color="#000000" stop-opacity=".9"/>
		</linearGradient>
		<linearGradient id="g2" x1="418.8" y1="88" x2="431" y2="77.8" gradientUnits="userSpaceOnUse">
			<stop offset=".168" stop-color="#000000" stop-opacity=".9"/>
			<stop offset=".399" stop-color="#000000" stop-opacity=".65"/>
			<stop offset=".729" stop-color="#000000" stop-opacity=".29"/>
			<stop offset="1" stop-color="#000000" stop-opacity="0"/>
		</linearGradient>
	</defs>
	<style>
		.s0 { fill: #ffffff;stroke: #ffffff;stroke-width: .4 } 
		.s1 { fill: #90caf9;stroke: #90caf9;stroke-width: .4 } 
		.s2 { opacity: .7;fill: url(#g1) } 
		.s3 { opacity: .7;fill: url(#g2) } 
	</style>
	<g id="logo-group">
		<g id="logo-center">
			<g id="title">
				<g id="path583812">
					<path id="Layer" class="s0" d="m68 102l-14.3-18h-7.9v-10.4h14q0.8 0 1.6-0.2c6.4-0.8 11.3-6.2 11.3-12.8 0-5.7-3.7-10.5-8.9-12.2 8.5 1.7 14.8 8.6 14.8 17.6 0 8.1-5 14.5-12.1 16.9l15.1 19.1z"/>
					<path id="Layer" class="s1" d="m72.7 60.6c0 6.6-4.9 12-11.3 12.8 3-0.9 5.2-4.2 5.2-7.4 0-3.7-3-7.6-6.8-7.6h-14v43.6h-12v-54h12 14q2.1 0 4 0.4c5.2 1.7 8.9 6.5 8.9 12.2z"/>
					<path id="Layer" class="s2" d="m45.8 48h14q2.1 0 4 0.4c5.2 1.7 8.9 6.5 8.9 12.2 0 6.6-4.9 12-11.3 12.8 3-0.9 5.2-4.2 5.2-7.4 0-3.7-3-7.6-6.8-7.6h-14z"/>
				</g>
				<g id="path583814">
					<path id="Layer" class="s0" d="m104.8 91.6h25.2v10.4h-25.2-12v-54h12 25.2v10.4h-25.2v11.6h21v10.4h-21z"/>
				</g>
				<g id="path583816">
					<path id="Layer" class="s0" d="m181.3 48h12v40.4 13.6l-38.5-30.8v30.8h-11.9v-54l38.4 30.8z"/>
				</g>
				<g id="path583818">
					<path id="Layer" class="s0" d="m231.5 48h15.8v10.4h-15.8v43.6h-12v-43.6h-15.8v-10.4h15.8 12q0 0 0 0z"/>
				</g>
				<g id="path583820">
					<path id="Layer" class="s0" d="m305.6 102.1h-13.5l-16-28.9-16.1 28.9h-14.3l23.2-41.8 6.8-12.2 7.1 12.9z"/>
				</g>
				<g id="path583822">
					<path id="Layer" class="s0" d="m327.2 48h-11.9v54h11.9 26.2v-10.4h-26.2z"/>
				</g>
				<g id="path583824">
					<path id="Layer" class="s0" d="m447.6 48v17.6 36.4h-12v-20.1l-14.8 20.1-6.4-8.8 21.4-29.1z"/>
					<path id="Layer" class="s3" d="m447.6 48v17.6l-26.8 36.4-6.4-8.8z"/>
					<path id="Layer" class="s1" d="m420.8 102l-14.8-20.1v20.1h-11.9v-36.4-17.6l11.8 16.1 21.4 29.1z"/>
				</g>
				<g id="path583826">
					<path id="Layer" class="s0" d="m517.5 102.1h-13.6l-16-28.9-16 28.9h-14.4l23.2-41.8 6.8-12.2 7.2 12.9z"/>
				</g>
				<g id="path583828">
					<path id="Layer" class="s0" d="m565.6 48h12v40.4 13.6l-38.5-30.8v30.8h-12v-54l38.5 30.8z"/>
				</g>
				<g id="path583830">
					<path id="Layer" class="s0" d="m647.4 102.1h-13.6l-16-28.9-16 28.9h-14.4l23.2-41.8 6.8-12.2 7.2 12.9z"/>
				</g>
				<g id="path583832">
					<path id="Layer" class="s0" d="m704.5 72.7q0 0.7 0 1.4 0 0.9-0.1 1.9 0 1-0.2 1.9 0 0.4-0.1 0.8 0 0.1 0 0.2c-2.3 12.6-13.4 22.2-26.6 22.2q-2 0-4-0.3c-13-2-23-13.2-23-26.7 0-14.9 12.1-27 27-27 10.7 0 19.9 6.2 24.3 15.2h-14.4c-2.6-2.3-6.1-3.7-9.9-3.7-8.5 0-15.4 7-15.4 15.5 0 8.5 6.9 15.4 15.4 15.4 6.8 0 12.6-4.5 14.6-10.6q0 0 0 0h-15.5v-10h15.4 12q0.4 1.9 0.5 3.8z"/>
				</g>
				<g id="path583834">
					<path id="Layer" class="s0" d="m730.4 91.6h25.1v10.4h-25.1-12v-54h12 25.1v10.4h-25.1v11.6h21v10.4h-21z"/>
				</g>
				<g id="path583836">
					<path id="Layer" fill-rule="evenodd" class="s0" d="m801.1 82.9l15.1 19.1h-13.6l-14.2-18h-8v18h-12v-54h12 14q2.1 0 4 0.4 0 0 0 0c8.5 1.7 14.9 8.6 14.9 17.6 0 8.1-5.1 14.5-12.2 16.9zm-5.1-9.5c3-0.9 5.3-4.2 5.3-7.4 0-3.7-3.1-7.6-6.9-7.6h-14v15.2h14q0.9 0 1.6-0.2z"/>
				</g>
			</g>
		</g>
	</g>
</svg>